<svg xmlns="http://www.w3.org/2000/svg" viewBox="0 0 64 64" width="64" height="64">
  <defs>
    <linearGradient id="g" x1="0" y1="0" x2="1" y2="1">
      <stop offset="0" stop-color="#8B5CF6"/>
      <stop offset="1" stop-color="#3B82F6"/>
    </linearGradient>
  </defs>
  <rect width="64" height="64" rx="16" fill="url(#g)"/>
  <path fill="#fff" d="M32 14c-9.5 0-17 7.3-17 16.5 0 2.3.5 4 1.1 5.6.5 1.2 1.7 2 3 2h4.1c.8 0 1.5-.5 1.9-1.2l.9-2.2c.3-.8 1.1-1.2 1.9-1.2h13c4.5 0 8.1-3.6 8.1-8C50 20.5 41.5 14 32 14Z"/>
  <path fill="#fff" opacity="0.55" d="M18 38.5h17.6c.9 0 1.7.6 2 1.5l.8 2.5c.3 1-.5 2.1-1.5 2.1H21.6c-2.2 0-4.2-1.2-5.3-3.1l-.8-1.5c-.5-.8.2-1.5 1.5-1.5Z"/>
  <circle cx="27" cy="27" r="3" fill="#0F172A" opacity="0.3"/>
</svg>
