<svg xmlns="http://www.w3.org/2000/svg" viewBox="0 0 512 512" width="512" height="512">
  <defs>
    <linearGradient id="g" x1="0" y1="0" x2="1" y2="1">
      <stop offset="0" stop-color="#8B5CF6"/>
      <stop offset="1" stop-color="#3B82F6"/>
    </linearGradient>
    <radialGradient id="glow" cx="0.5" cy="0.35" r="0.7">
      <stop offset="0" stop-color="#A78BFA"/>
      <stop offset="1" stop-color="#3B82F6"/>
    </radialGradient>
  </defs>
  <rect width="512" height="512" fill="url(#g)"/>
  <rect width="512" height="512" fill="url(#glow)" opacity="0.4"/>
  <g transform="translate(96 96) scale(10)">
    <path fill="#fff" d="M16 5C9.9 5 5 9.7 5 15.6c0 1.5.3 2.6.7 3.6.3.8 1.1 1.3 2 1.3h2.6c.5 0 1-.3 1.2-.8l.6-1.4c.2-.5.7-.8 1.2-.8h8.3c2.9 0 5.2-2.3 5.2-5.1C27 9.2 22.1 5 16 5Z"/>
    <path fill="#fff" opacity="0.55" d="M9 19.5h11.3c.6 0 1.1.4 1.3 1l.5 1.6c.2.7-.3 1.4-1 1.4H12c-1.4 0-2.7-.8-3.4-2l-.5-1c-.3-.5.1-1 .9-1Z"/>
    <circle cx="13" cy="13" r="2" fill="#0F172A" opacity="0.35"/>
  </g>
</svg>
